<svg xmlns="http://www.w3.org/2000/svg" viewBox="0 0 24 24" fill="none">
  <g stroke="currentColor" stroke-width="1.85" stroke-linecap="round" stroke-linejoin="round">
    <path d="M12 7.25c-1.3-1-2.95-1.5-4.95-1.5-1.2 0-2.3.2-3.3.6V17.7c1-.4 2.1-.6 3.3-.6 2 0 3.65.5 4.95 1.5"/>
    <path d="M12 7.25c1.3-1 2.95-1.5 4.95-1.5 1.2 0 2.3.2 3.3.6V17.7c-1-.4-2.1-.6-3.3-.6-2 0-3.65.5-4.95 1.5"/>
    <path d="M12 7.25v11.35"/>
    <path d="M6.1 9h2.9"/>
    <path d="M6.1 11.8h2.9"/>
    <path d="M15 9h2.9"/>
    <path d="M15 11.8h2.9"/>
  </g>
</svg>
