<svg xmlns="http://www.w3.org/2000/svg" viewBox="0 0 24 24" fill="none">
  <g stroke="currentColor" stroke-width="1.9" stroke-linecap="round" stroke-linejoin="round">
    <path d="M12 7.2c-1.4-1.1-3.05-1.65-4.95-1.65-1.2 0-2.3.2-3.25.6V17.4c.95-.4 2.05-.6 3.25-.6 1.9 0 3.55.55 4.95 1.65"/>
    <path d="M12 7.2c1.4-1.1 3.05-1.65 4.95-1.65 1.2 0 2.3.2 3.25.6V17.4c-.95-.4-2.05-.6-3.25-.6-1.9 0-3.55.55-4.95 1.65"/>
    <path d="M12 7v11.5"/>
    <path d="M14.8 9.7h3.1"/>
    <path d="M14.8 12.3h3.1"/>
    <path d="M14.8 14.9h2.2"/>
  </g>
</svg>
